<svg xmlns="http://www.w3.org/2000/svg" xmlns:xlink="http://www.w3.org/1999/xlink" width="500" zoomAndPan="magnify" viewBox="0 0 375 374.999991" height="500" preserveAspectRatio="xMidYMid meet" version="1.0"><defs><clipPath id="3f947f04d9"><path d="M 344.726562 99.382812 L 373 99.382812 L 373 133 L 344.726562 133 Z M 344.726562 99.382812 " clip-rule="nonzero"/></clipPath><clipPath id="ae64f400f2"><path d="M 348 136 L 370 136 L 370 249.382812 L 348 249.382812 Z M 348 136 " clip-rule="nonzero"/></clipPath><clipPath id="4d29f4128f"><path d="M 179 138.273438 L 327 138.273438 L 327 207 L 179 207 Z M 179 138.273438 " clip-rule="nonzero"/></clipPath><clipPath id="d60e25bcd5"><path d="M 235 214 L 257 214 L 257 236.523438 L 235 236.523438 Z M 235 214 " clip-rule="nonzero"/></clipPath><clipPath id="cab99ba7e4"><path d="M 10 144 L 158 144 L 158 211.746094 L 10 211.746094 Z M 10 144 " clip-rule="nonzero"/></clipPath></defs><rect x="-37.5" width="450" fill="#ffffff" y="-37.499999" height="449.999989" fill-opacity="1"/><rect x="-37.5" width="450" fill="#ffffff" y="-37.499999" height="449.999989" fill-opacity="1"/><g clip-path="url(#3f947f04d9)"><path fill="#000000" d="M 362.878906 132.945312 C 357.726562 132.945312 349.125 132.1875 346.972656 131.359375 C 344.902344 130.566406 344.722656 129.023438 344.933594 127.871094 L 345.082031 127.070312 L 358.351562 123.710938 C 357.914062 123.390625 357.429688 123.082031 356.957031 122.773438 C 354.882812 121.425781 352.296875 119.753906 352.394531 116.792969 C 352.722656 106.765625 358.75 102.910156 365.433594 99.539062 L 365.699219 99.40625 L 367.378906 99.40625 L 367.753906 99.933594 C 368.796875 101.398438 368.601562 103.796875 368.253906 105.550781 C 367.902344 107.347656 366.863281 110.667969 365.222656 111.691406 C 364.660156 112.042969 363.976562 112.085938 363.25 112.128906 C 362.886719 112.152344 362.558594 112.175781 362.277344 112.21875 C 363.664062 113.191406 365.09375 113.917969 366.390625 114.578125 C 370.675781 116.761719 374.722656 118.824219 371.628906 127.460938 C 370.6875 130.085938 369.808594 131.871094 366.34375 132.714844 C 365.691406 132.875 364.441406 132.945312 362.878906 132.945312 Z M 347.867188 128.984375 C 350.210938 129.882812 363.414062 130.816406 365.75 130.246094 C 367.976562 129.703125 368.429688 128.910156 369.257812 126.597656 C 371.597656 120.078125 369.476562 118.996094 365.253906 116.847656 C 363.414062 115.910156 361.328125 114.847656 359.324219 113.132812 L 358.5625 112.484375 L 359.015625 111.589844 C 359.925781 109.78125 361.910156 109.664062 363.097656 109.59375 C 363.371094 109.578125 363.773438 109.550781 363.929688 109.511719 C 364.359375 109.1875 365.304688 107.492188 365.785156 105.054688 C 366.039062 103.777344 366.058594 102.777344 365.949219 102.125 C 358.828125 105.792969 355.164062 109.195312 354.910156 116.875 C 354.867188 118.289062 356.230469 119.28125 358.320312 120.636719 C 359.675781 121.515625 361.082031 122.425781 361.90625 123.683594 L 362.886719 125.179688 Z M 347.867188 128.984375 " fill-opacity="1" fill-rule="nonzero"/></g><g clip-path="url(#ae64f400f2)"><path fill="#000000" d="M 359.570312 249.398438 L 358.03125 248.527344 C 356.292969 247.550781 355.789062 244.824219 355.386719 241.878906 C 355.355469 241.640625 355.324219 241.417969 355.296875 241.226562 C 354.574219 236.433594 353.917969 230.03125 353.695312 225.65625 C 353.382812 219.496094 353.695312 212.246094 354.003906 205.234375 C 354.425781 195.46875 354.867188 185.371094 353.6875 177.628906 C 353.304688 175.097656 352.261719 175.214844 350.941406 175.359375 C 350.289062 175.433594 349.546875 175.515625 348.976562 174.976562 C 348.316406 174.347656 347.40625 173.484375 350.9375 159.339844 C 352.652344 152.46875 354.828125 145.050781 355.683594 143.148438 C 357.664062 138.753906 360.984375 136.09375 363.945312 136.523438 C 365.382812 136.734375 367.90625 137.878906 368.644531 143.183594 C 371.070312 160.574219 367.847656 187.800781 365.496094 207.679688 C 365.304688 209.273438 365.125 210.808594 364.953125 212.277344 C 363.34375 226.066406 361.734375 237.304688 359.882812 247.644531 Z M 351.730469 172.761719 C 353.304688 172.761719 355.585938 173.34375 356.175781 177.242188 C 357.394531 185.234375 356.949219 195.457031 356.519531 205.34375 C 356.203125 212.617188 355.902344 219.488281 356.210938 225.527344 C 356.429688 229.824219 357.078125 236.125 357.785156 240.84375 C 357.816406 241.046875 357.847656 241.28125 357.882812 241.535156 C 357.929688 241.878906 358.007812 242.453125 358.121094 243.089844 C 359.667969 233.921875 361.0625 223.910156 362.453125 211.980469 C 362.625 210.507812 362.804688 208.972656 362.996094 207.378906 C 365.332031 187.636719 368.53125 160.597656 366.152344 143.535156 C 365.78125 140.863281 364.84375 139.222656 363.585938 139.039062 C 362.089844 138.820312 359.617188 140.554688 357.976562 144.199219 C 356.304688 147.914062 350.914062 168.410156 350.859375 172.8125 C 351.105469 172.789062 351.402344 172.761719 351.730469 172.761719 Z M 350.910156 173.433594 Z M 350.910156 173.433594 " fill-opacity="1" fill-rule="nonzero"/></g><g clip-path="url(#4d29f4128f)"><path fill="#000000" d="M 239.34375 206.828125 C 232.359375 206.828125 227.027344 206.617188 224.457031 206.488281 C 205.148438 205.523438 194.039062 201.839844 187.296875 194.164062 C 181.28125 187.308594 178.925781 177.011719 180.101562 162.683594 C 180.414062 158.875 182.546875 139.824219 193.839844 138.78125 C 198.398438 138.359375 203.46875 142.035156 204.269531 146.347656 C 204.917969 149.847656 203.980469 153.261719 203.078125 156.566406 C 202.539062 158.53125 202.03125 160.390625 201.878906 162.167969 C 200.628906 176.722656 202.402344 181.503906 215.929688 183.046875 C 237.265625 185.480469 278.363281 184.308594 296.828125 176.875 C 301.320312 175.066406 303.941406 173.113281 304.214844 171.371094 C 304.613281 168.832031 300.414062 165.34375 296.707031 162.265625 C 292.808594 159.027344 289.128906 155.972656 288.183594 152.46875 C 287.382812 149.503906 287.878906 146.277344 289.476562 144.050781 C 290.757812 142.261719 292.695312 141.199219 294.925781 141.054688 C 298.15625 140.84375 304.328125 144.089844 308.941406 146.847656 C 313.621094 149.644531 319.230469 153.535156 321.21875 155.914062 C 328.933594 165.144531 328.5625 179.425781 320.375 188.425781 C 313.007812 196.523438 297.566406 202.054688 274.480469 204.859375 C 261.578125 206.429688 248.910156 206.828125 239.34375 206.828125 Z M 194.214844 142.78125 C 187.5 143.402344 184.707031 155.789062 184.113281 163.011719 C 183.03125 176.199219 185.0625 185.519531 190.324219 191.515625 C 196.277344 198.292969 206.542969 201.570312 224.65625 202.476562 C 230.667969 202.777344 251.996094 203.546875 273.992188 200.871094 C 295.78125 198.222656 310.789062 192.984375 317.394531 185.726562 C 324.261719 178.175781 324.585938 166.210938 318.128906 158.484375 C 314.921875 154.648438 298.800781 144.828125 295.1875 145.0625 C 294.136719 145.128906 293.339844 145.5625 292.75 146.386719 C 291.847656 147.644531 291.582031 149.621094 292.070312 151.425781 C 292.683594 153.695312 296.039062 156.484375 299.28125 159.179688 C 304.03125 163.125 308.941406 167.203125 308.191406 171.996094 C 307.660156 175.371094 304.53125 178.105469 298.335938 180.597656 C 292.113281 183.105469 279.945312 186.367188 257.324219 187.6875 C 242.582031 188.550781 226.546875 188.300781 215.472656 187.039062 C 207.199219 186.09375 202.363281 183.714844 199.789062 179.324219 C 197.308594 175.09375 197.226562 169.269531 197.867188 161.824219 C 198.050781 159.683594 198.632812 157.558594 199.195312 155.507812 C 200.015625 152.507812 200.792969 149.675781 200.308594 147.078125 C 199.878906 144.753906 196.742188 142.546875 194.214844 142.78125 Z M 194.214844 142.78125 " fill-opacity="1" fill-rule="nonzero"/></g><g clip-path="url(#d60e25bcd5)"><path fill="#000000" d="M 246.464844 236.445312 C 243.367188 236.445312 240.535156 235.179688 238.4375 232.800781 C 235.554688 229.523438 234.574219 224.71875 236 220.851562 C 237.242188 217.472656 240.0625 215.304688 243.941406 214.738281 C 250.828125 213.734375 255.449219 218.664062 256.453125 224.054688 C 256.941406 226.65625 256.59375 229.257812 255.476562 231.382812 C 254.183594 233.847656 251.992188 235.492188 249.144531 236.136719 C 248.238281 236.34375 247.339844 236.445312 246.464844 236.445312 Z M 244.519531 218.710938 C 242.140625 219.058594 240.5 220.277344 239.777344 222.238281 C 238.859375 224.726562 239.554688 227.980469 241.460938 230.148438 C 242.671875 231.523438 244.832031 232.996094 248.253906 232.21875 C 251.984375 231.375 253.074219 227.878906 252.496094 224.789062 C 251.589844 219.921875 247.835938 218.230469 244.519531 218.710938 Z M 244.519531 218.710938 " fill-opacity="1" fill-rule="nonzero"/></g><g clip-path="url(#cab99ba7e4)"><path fill="#000000" d="M 69.851562 211.757812 C 60.339844 211.757812 52.757812 211.398438 49.058594 211.183594 C 34.179688 210.3125 23.921875 206.429688 17.703125 199.3125 C 11.621094 192.351562 9.207031 182.167969 10.324219 168.175781 C 10.613281 164.535156 12.558594 146.277344 22.246094 144.3125 C 26.980469 143.351562 29.863281 144.894531 31.445312 146.355469 C 33.980469 148.699219 35.101562 152.648438 34.523438 157.195312 C 34.203125 159.722656 33.726562 161.976562 33.261719 164.160156 C 32.234375 169 31.347656 173.183594 32.339844 179.113281 C 33.636719 186.851562 41.875 188.003906 50.929688 188.578125 C 72.441406 189.9375 110.722656 189.199219 128.007812 181.582031 C 132 179.820312 134.246094 178.027344 134.496094 176.394531 C 134.867188 173.976562 130.949219 170.558594 127.492188 167.539062 C 122.691406 163.34375 117.722656 159.007812 118.109375 153.644531 C 118.429688 149.21875 120.839844 147.585938 122.804688 146.996094 C 127.523438 145.578125 134.589844 148.964844 139.6875 152.054688 C 145.019531 155.285156 150.554688 159.675781 152.558594 162.265625 C 158.921875 170.496094 158.945312 182.71875 152.605469 191.332031 C 139.722656 208.835938 96.964844 211.757812 69.851562 211.757812 Z M 23.050781 148.25 C 17.761719 149.320312 14.945312 160.945312 14.34375 168.496094 C 13.316406 181.351562 15.410156 190.570312 20.746094 196.675781 C 26.214844 202.933594 35.554688 206.367188 49.292969 207.171875 C 56.046875 207.566406 79.875 208.652344 103.054688 206.035156 C 127.117188 203.320312 143.128906 197.414062 149.351562 188.957031 C 154.652344 181.753906 154.65625 171.5625 149.363281 164.71875 C 147.894531 162.820312 142.972656 158.75 137.59375 155.488281 C 131.558594 151.828125 126.464844 150.09375 123.96875 150.84375 C 123.472656 150.988281 122.320312 151.335938 122.132812 153.933594 C 121.890625 157.300781 126.277344 161.132812 130.152344 164.515625 C 134.796875 168.574219 139.1875 172.40625 138.480469 177.003906 C 137.992188 180.191406 135.183594 182.8125 129.640625 185.253906 C 121.28125 188.9375 108.164062 191.375 90.660156 192.5 C 77.820312 193.328125 62.871094 193.359375 50.675781 192.589844 C 43.054688 192.105469 30.296875 191.300781 28.363281 179.777344 C 27.246094 173.097656 28.25 168.351562 29.316406 163.328125 C 29.765625 161.226562 30.226562 159.054688 30.523438 156.691406 C 30.9375 153.445312 30.273438 150.753906 28.703125 149.300781 C 27.40625 148.105469 25.507812 147.75 23.050781 148.25 Z M 23.050781 148.25 " fill-opacity="1" fill-rule="nonzero"/></g><path fill="#000000" d="M 60.117188 163.554688 C 59.402344 163.554688 58.660156 163.5 57.902344 163.390625 C 51.761719 162.492188 48.882812 157.445312 48.753906 152.839844 C 48.625 148.261719 51.160156 143.101562 57.105469 141.890625 C 62.136719 140.867188 66.480469 142.355469 69.011719 145.976562 C 71.59375 149.660156 71.742188 154.894531 69.378906 158.707031 C 67.425781 161.851562 64.121094 163.554688 60.117188 163.554688 Z M 60.125 145.59375 C 59.425781 145.59375 58.6875 145.671875 57.914062 145.828125 C 54.007812 146.625 52.710938 150.042969 52.785156 152.726562 C 52.863281 155.441406 54.402344 158.820312 58.488281 159.414062 C 61.863281 159.910156 64.511719 158.90625 65.949219 156.59375 C 67.46875 154.144531 67.367188 150.644531 65.707031 148.277344 C 64.472656 146.511719 62.53125 145.59375 60.125 145.59375 Z M 60.125 145.59375 " fill-opacity="1" fill-rule="nonzero"/><path fill="#000000" d="M 90.875 158.699219 C 90.449219 158.699219 90.015625 158.679688 89.574219 158.636719 C 83.140625 158.0625 79.9375 153.097656 79.617188 148.433594 C 79.199219 142.394531 83.046875 138.765625 87.042969 137.847656 C 91.820312 136.75 96.082031 138.136719 98.738281 141.652344 C 101.40625 145.1875 101.835938 150.21875 99.785156 153.890625 C 98.058594 156.984375 94.851562 158.699219 90.875 158.699219 Z M 89.933594 154.636719 C 92.9375 154.902344 95.128906 153.972656 96.261719 151.9375 C 97.542969 149.644531 97.226562 146.335938 95.515625 144.070312 C 93.835938 141.847656 91.148438 141.027344 87.945312 141.765625 C 84.496094 142.554688 83.46875 145.703125 83.640625 148.15625 C 83.828125 150.902344 85.589844 154.25 89.933594 154.636719 Z M 89.933594 154.636719 " fill-opacity="1" fill-rule="nonzero"/></svg>