<svg xmlns="http://www.w3.org/2000/svg" xmlns:xlink="http://www.w3.org/1999/xlink" width="500" zoomAndPan="magnify" viewBox="0 0 375 374.999991" height="500" preserveAspectRatio="xMidYMid meet" version="1.0"><defs><clipPath id="e09b850716"><path d="M 156 100 L 216 100 L 216 332.691406 L 156 332.691406 Z M 156 100 " clip-rule="nonzero"/></clipPath><clipPath id="43153615f5"><path d="M 169 42.441406 L 218 42.441406 L 218 101 L 169 101 Z M 169 42.441406 " clip-rule="nonzero"/></clipPath></defs><rect x="-37.5" width="450" fill="#ffffff" y="-37.499999" height="449.999989" fill-opacity="1"/><rect x="-37.5" width="450" fill="#ffffff" y="-37.499999" height="449.999989" fill-opacity="1"/><g clip-path="url(#e09b850716)"><path fill="#000000" d="M 161.320312 332.675781 C 160.992188 332.675781 160.675781 332.648438 160.375 332.597656 C 157.691406 332.140625 156.703125 330.496094 156.355469 329.558594 C 155.148438 326.324219 157.90625 323.003906 160.570312 319.792969 C 161.230469 318.996094 162.226562 317.796875 162.433594 317.390625 C 165.648438 309.882812 168.007812 290.125 169.0625 261.785156 C 169.949219 237.980469 168.242188 214.652344 166.59375 192.089844 C 165.804688 181.273438 164.988281 170.089844 164.449219 158.871094 C 163.53125 139.761719 169.628906 131.566406 180.484375 118.730469 C 183.136719 115.59375 196.800781 99.964844 205.117188 100.324219 C 207.15625 100.410156 208.917969 101.359375 210.074219 102.996094 L 210.851562 104.097656 L 210.632812 105.429688 C 209.210938 114.113281 210.597656 123.714844 211.9375 133 C 212.644531 137.902344 213.375 142.976562 213.699219 147.910156 L 213.859375 150.386719 C 217.101562 199.632812 220.160156 246.148438 194.722656 291.953125 C 192.796875 295.421875 186.550781 305.621094 180.175781 314.574219 C 169.351562 329.777344 164.535156 332.679688 161.320312 332.679688 Z M 161.089844 326.070312 Z M 203.695312 107.179688 C 202.347656 107.664062 199.714844 109.074219 195.179688 113.132812 C 191.035156 116.84375 187.082031 121.203125 185.574219 122.988281 C 174.453125 136.136719 170.324219 142.609375 171.089844 158.554688 C 171.625 169.691406 172.4375 180.832031 173.226562 191.609375 C 174.886719 214.347656 176.605469 237.863281 175.707031 262.03125 C 174.984375 281.425781 173.289062 306.300781 169.304688 317.992188 C 171.054688 315.816406 173.136719 313.054688 175.597656 309.550781 C 181.523438 301.113281 187.1875 291.839844 188.902344 288.753906 C 213.398438 244.644531 210.539062 201.164062 207.226562 150.816406 L 207.0625 148.339844 C 206.757812 143.660156 206.074219 138.9375 205.351562 133.941406 C 204.078125 125.105469 202.765625 116 203.695312 107.179688 Z M 203.695312 107.179688 " fill-opacity="1" fill-rule="nonzero"/></g><g clip-path="url(#43153615f5)"><path fill="#000000" d="M 177.175781 100.609375 C 177.066406 100.609375 176.953125 100.609375 176.84375 100.605469 L 169.421875 100.484375 L 183.21875 85.609375 L 189.476562 82.148438 C 188.359375 81.496094 186.589844 80.8125 185.679688 80.460938 C 182.796875 79.351562 180.3125 78.390625 179.683594 75.855469 C 178.3125 70.339844 180.136719 64.242188 184.953125 58.21875 C 192.070312 49.328125 204.429688 42.449219 213.226562 42.449219 C 213.3125 42.449219 213.402344 42.449219 213.488281 42.449219 L 217.550781 42.515625 L 216.683594 46.460938 C 215.070312 53.8125 211.433594 59.441406 205.621094 63.550781 C 211.238281 69.035156 210.679688 75.015625 209.660156 78.421875 C 208.015625 83.9375 203.167969 89.644531 196.363281 94.070312 C 190.050781 98.179688 182.910156 100.609375 177.175781 100.609375 Z M 187.382812 90.875 L 186.375 91.964844 C 189.824219 90.53125 193.167969 88.457031 195.972656 86.125 Z M 185.976562 73.433594 C 186.546875 73.703125 187.4375 74.046875 188.082031 74.292969 C 191.664062 75.675781 198.328125 78.25 196.871094 84.394531 L 196.582031 85.605469 C 199.925781 82.699219 202.417969 79.445312 203.289062 76.539062 C 204.515625 72.429688 202.785156 68.980469 197.996094 65.988281 L 193.003906 62.871094 L 198.269531 60.234375 C 203.347656 57.691406 206.691406 54.371094 208.691406 49.773438 C 202.375 51.570312 194.769531 56.570312 190.15625 62.339844 C 186.996094 66.285156 185.535156 70.1875 185.976562 73.433594 Z M 185.976562 73.433594 " fill-opacity="1" fill-rule="nonzero"/></g></svg>