<svg xmlns="http://www.w3.org/2000/svg" xmlns:xlink="http://www.w3.org/1999/xlink" width="500" zoomAndPan="magnify" viewBox="0 0 375 374.999991" height="500" preserveAspectRatio="xMidYMid meet" version="1.0"><defs><clipPath id="eb3f539a8c"><path d="M 45.835938 64.078125 L 261 64.078125 L 261 308 L 45.835938 308 Z M 45.835938 64.078125 " clip-rule="nonzero"/></clipPath><clipPath id="d46f184b48"><path d="M 289 109 L 329.335938 109 L 329.335938 310.828125 L 289 310.828125 Z M 289 109 " clip-rule="nonzero"/></clipPath></defs><rect x="-37.5" width="450" fill="#ffffff" y="-37.499999" height="449.999989" fill-opacity="1"/><rect x="-37.5" width="450" fill="#ffffff" y="-37.499999" height="449.999989" fill-opacity="1"/><g clip-path="url(#eb3f539a8c)"><path fill="#000000" d="M 260.53125 224.015625 C 260.53125 279.757812 244.789062 307.628906 213.300781 307.628906 C 198.578125 307.628906 187.175781 301.777344 179.101562 290.070312 C 170.722656 300.816406 159.167969 306.191406 144.445312 306.191406 C 122.464844 306.191406 108.664062 296.882812 103.039062 278.269531 C 97.816406 280.035156 92.449219 280.898438 86.9375 280.859375 C 77.019531 280.859375 68.121094 278.664062 60.246094 274.273438 C 50.640625 269.070312 45.835938 261.871094 45.835938 252.679688 C 45.835938 239 51.664062 227.972656 63.320312 219.601562 C 65.566406 217.96875 76.199219 210.566406 95.222656 197.390625 C 96.445312 196.371094 99.667969 191.621094 104.882812 183.140625 C 108.253906 177.632812 112.957031 174.871094 119 174.867188 C 128.605469 174.867188 133.410156 181.5625 133.410156 194.953125 C 133.410156 199.660156 133.152344 206.765625 132.640625 216.269531 C 132.132812 225.769531 131.875 232.871094 131.878906 237.570312 C 131.878906 254.335938 136.9375 262.71875 147.0625 262.714844 C 156.363281 262.714844 161.011719 255.96875 161.015625 242.480469 C 161.015625 235.941406 160.476562 226.128906 159.40625 213.042969 C 158.332031 199.960938 157.792969 190.148438 157.792969 183.605469 C 157.792969 177.785156 159.582031 172.652344 163.160156 168.203125 C 166.734375 163.753906 171.386719 161.53125 177.117188 161.53125 C 187.851562 161.53125 193.421875 168.324219 193.828125 181.90625 C 194.03125 189.875 194.339844 201.773438 194.746094 217.601562 C 195.15625 233.429688 196.433594 244.824219 198.578125 251.785156 C 201.128906 260.0625 205.476562 264.199219 211.613281 264.195312 C 219.992188 264.195312 224.183594 258.019531 224.1875 245.664062 L 224.1875 228.347656 C 224.1875 214.464844 223.664062 203.742188 222.621094 196.183594 C 220.992188 182.082031 220.179688 173.957031 220.179688 171.808594 C 220.179688 166.496094 221.8125 161.847656 225.078125 157.867188 C 228.34375 153.882812 232.59375 151.894531 237.824219 151.902344 C 250.199219 151.902344 257.414062 166.859375 259.457031 196.773438 C 260.171875 206.664062 260.53125 215.746094 260.53125 224.015625 Z M 252.710938 224.015625 C 252.710938 209.726562 251.535156 193.390625 249.1875 175.007812 C 247.757812 164.695312 243.972656 159.539062 237.835938 159.539062 C 231.085938 159.539062 227.714844 163.625 227.714844 171.796875 C 227.714844 173.835938 228.582031 181.597656 230.308594 195.078125 C 231.328125 203.355469 231.839844 215.613281 231.84375 231.851562 C 231.84375 245.234375 231.332031 253.871094 230.308594 257.757812 C 227.769531 267.050781 221.539062 271.695312 211.617188 271.695312 C 202.011719 271.695312 195.417969 266.382812 191.835938 255.757812 C 189.996094 250.347656 188.765625 240.898438 188.152344 227.417969 L 186.160156 182.375 C 185.753906 173.59375 182.738281 169.203125 177.117188 169.199219 C 169.445312 169.199219 165.613281 173.996094 165.613281 183.589844 C 165.613281 190.132812 166.148438 199.9375 167.222656 213.007812 C 168.292969 226.078125 168.832031 235.882812 168.832031 242.421875 C 168.832031 249.675781 167.09375 255.953125 163.621094 261.261719 C 159.527344 267.289062 154.007812 270.304688 147.058594 270.304688 C 132.019531 270.308594 124.5 259.382812 124.5 237.527344 C 124.5 232.832031 124.679688 225.734375 125.035156 216.226562 C 125.394531 206.722656 125.570312 199.621094 125.570312 194.925781 C 125.570312 186.65625 123.375 182.519531 118.980469 182.519531 C 115.714844 182.519531 112.292969 185.277344 108.710938 190.800781 C 103.707031 198.476562 100.84375 202.570312 100.128906 203.074219 C 91.242188 208.90625 81.386719 215.660156 70.558594 223.328125 C 59.265625 231.269531 53.617188 241.042969 53.617188 252.648438 C 53.617188 259.558594 57.65625 264.898438 65.734375 268.675781 C 72.074219 271.628906 79.128906 273.101562 86.902344 273.101562 C 92.421875 273.101562 98.042969 271.816406 103.777344 269.246094 C 104.429688 269.074219 105.09375 268.980469 105.769531 268.960938 C 107.308594 268.960938 109.402344 272.777344 112.054688 280.414062 C 117.679688 292.417969 128.46875 298.417969 144.421875 298.417969 C 156.90625 298.417969 166.824219 293.484375 174.175781 283.617188 C 176.730469 280.261719 178.363281 278.582031 179.074219 278.582031 L 188.753906 289.289062 C 195.398438 296.527344 203.578125 300.144531 213.292969 300.144531 C 239.578125 300.144531 252.722656 274.773438 252.722656 224.027344 Z M 108.097656 223.578125 L 107.5 246.871094 C 107.394531 251.164062 101.722656 253.308594 90.480469 253.304688 C 78.820312 253.304688 72.992188 250.5 72.996094 244.882812 C 72.996094 240.277344 80.558594 233.535156 95.691406 224.65625 C 100.699219 221.695312 103.816406 219.910156 105.046875 219.292969 C 107.082031 219.292969 108.097656 220.722656 108.097656 223.578125 Z M 100.125 230.625 C 94.605469 233.476562 88.214844 238.054688 80.957031 244.359375 C 82.683594 245.277344 85.855469 245.734375 90.464844 245.734375 C 93.117188 245.734375 96.285156 245.222656 99.972656 244.207031 Z M 213.824219 125.460938 C 213.824219 133.824219 211.882812 140.859375 208.003906 146.566406 C 203.503906 153.195312 197.222656 156.507812 189.152344 156.507812 C 184.242188 156.507812 180.15625 154.867188 176.890625 151.582031 C 172.601562 158.320312 166.011719 161.6875 157.121094 161.6875 C 145.171875 161.6875 139.195312 154.285156 139.195312 139.476562 C 139.195312 124.363281 143.441406 116.804688 151.9375 116.800781 C 157.464844 116.800781 160.230469 119.96875 160.230469 126.300781 C 160.191406 127.484375 160.066406 128.660156 159.851562 129.828125 C 159.644531 130.9375 159.515625 132.0625 159.472656 133.191406 C 159.472656 134.3125 159.625 135.132812 159.933594 135.640625 L 160.84375 135.640625 C 162.878906 135.640625 165.417969 131.632812 168.464844 123.613281 C 171.515625 115.597656 174.972656 111.589844 178.839844 111.589844 C 182.503906 111.589844 185.246094 114.855469 187.074219 121.394531 C 188.902344 127.929688 190.222656 131.195312 191.042969 131.195312 C 192.972656 131.195312 193.9375 128.652344 193.941406 123.570312 C 193.941406 122.757812 193.894531 121.511719 193.796875 119.828125 C 193.699219 118.140625 193.652344 116.894531 193.652344 116.085938 C 193.652344 108.875 196.605469 105.269531 202.511719 105.269531 C 210.054688 105.269531 213.824219 112 213.824219 125.460938 Z M 206.09375 125.496094 C 206.09375 117.191406 204.929688 113.039062 202.597656 113.042969 C 201.820312 113.042969 201.445312 114.105469 201.445312 116.230469 L 201.445312 121.699219 C 201.445312 133.042969 198.027344 138.710938 191.1875 138.710938 C 185.160156 138.710938 181.738281 136.257812 180.921875 131.355469 L 178.933594 119.265625 L 178.316406 119.417969 C 177.296875 122.488281 175.917969 126.882812 174.183594 132.597656 C 172.039062 139.746094 167.597656 143.320312 160.855469 143.316406 C 154.832031 143.316406 151.820312 139.949219 151.820312 133.207031 C 151.863281 132.074219 151.992188 130.953125 152.203125 129.839844 C 152.417969 128.675781 152.546875 127.5 152.585938 126.316406 C 152.585938 125.496094 152.4375 124.878906 152.144531 124.476562 L 151.855469 124.476562 C 148.613281 124.476562 146.996094 129.484375 146.996094 139.5 C 146.980469 149.304688 150.386719 154.203125 157.210938 154.203125 C 163.011719 154.203125 169.328125 149.550781 176.152344 140.242188 C 176.453125 140.242188 178.03125 141.660156 180.886719 144.488281 C 183.738281 147.320312 186.492188 148.734375 189.136719 148.734375 C 200.4375 148.734375 206.089844 140.988281 206.09375 125.496094 Z M 185.007812 99.648438 C 185.007812 106.695312 182.101562 110.21875 176.285156 110.21875 C 171.691406 110.21875 168.933594 106.898438 168.015625 100.257812 C 166.289062 87.800781 165.425781 80.90625 165.425781 79.578125 C 165.417969 69.265625 168.882812 64.105469 175.824219 64.105469 C 181.945312 64.105469 185.007812 67.988281 185.007812 75.75 Z M 177.261719 99.648438 L 177.261719 75.757812 C 177.261719 73.101562 176.761719 71.769531 175.761719 71.769531 C 173.859375 71.769531 172.90625 73.101562 172.90625 75.757812 C 172.90625 89.238281 174.007812 98.125 176.210938 102.414062 L 176.8125 102.261719 C 177.117188 101.417969 177.265625 100.546875 177.261719 99.648438 Z M 177.261719 99.648438 " fill-opacity="1" fill-rule="nonzero"/></g><g clip-path="url(#d46f184b48)"><path fill="#000000" d="M 329.34375 290.445312 C 329.34375 304.007812 323.75 310.792969 312.566406 310.796875 C 301.777344 310.796875 296.132812 304.417969 295.632812 291.667969 L 289.582031 137.574219 C 289.273438 130.738281 290.855469 124.566406 294.320312 119.054688 C 298.296875 112.933594 303.546875 109.875 310.074219 109.875 C 322.917969 109.875 329.339844 118.851562 329.34375 136.808594 Z M 321.851562 290.3125 L 321.851562 136.78125 C 321.851562 123.835938 317.929688 117.363281 310.085938 117.359375 C 305.597656 117.359375 302.183594 119.910156 299.847656 125.003906 C 297.910156 129.1875 297.046875 133.777344 297.253906 138.769531 L 303.410156 291.078125 C 303.808594 299.234375 306.882812 303.3125 312.632812 303.3125 C 318.777344 303.3125 321.851562 298.976562 321.851562 290.3125 Z M 321.851562 290.3125 " fill-opacity="1" fill-rule="nonzero"/></g></svg>