<svg xmlns="http://www.w3.org/2000/svg" xmlns:xlink="http://www.w3.org/1999/xlink" width="500" zoomAndPan="magnify" viewBox="0 0 375 374.999991" height="500" preserveAspectRatio="xMidYMid meet" version="1.0"><defs><clipPath id="8d7894b079"><path d="M 148 244 L 194 244 L 194 290.390625 L 148 290.390625 Z M 148 244 " clip-rule="nonzero"/></clipPath></defs><rect x="-37.5" width="450" fill="#ffffff" y="-37.499999" height="449.999989" fill-opacity="1"/><rect x="-37.5" width="450" fill="#ffffff" y="-37.499999" height="449.999989" fill-opacity="1"/><path fill="#000000" d="M 157.144531 228.28125 C 142.582031 228.28125 131.464844 227.835938 126.105469 227.566406 C 85.851562 225.550781 62.683594 217.839844 48.632812 201.789062 C 36.082031 187.453125 31.175781 165.914062 33.628906 135.949219 C 34.28125 127.984375 38.726562 88.144531 62.273438 85.957031 C 71.78125 85.078125 82.347656 92.765625 84.015625 101.785156 C 85.367188 109.105469 83.417969 116.246094 81.53125 123.152344 C 80.410156 127.269531 79.351562 131.152344 79.03125 134.875 C 76.425781 165.316406 80.125 175.3125 108.324219 178.539062 C 152.8125 183.628906 238.503906 181.179688 277.003906 165.628906 C 286.363281 161.851562 291.832031 157.765625 292.402344 154.125 C 293.234375 148.8125 284.476562 141.515625 276.75 135.078125 C 268.625 128.308594 260.949219 121.914062 258.976562 114.589844 C 257.304688 108.390625 258.339844 101.640625 261.671875 96.976562 C 264.347656 93.238281 268.382812 91.015625 273.035156 90.714844 C 279.769531 90.273438 292.640625 97.0625 302.257812 102.832031 C 312.015625 108.683594 323.714844 116.816406 327.859375 121.789062 C 343.941406 141.097656 343.167969 170.964844 326.097656 189.789062 C 310.738281 206.726562 278.539062 218.292969 230.402344 224.164062 C 203.507812 227.441406 177.097656 228.28125 157.144531 228.28125 Z M 63.050781 94.324219 C 49.054688 95.621094 43.230469 121.53125 41.992188 136.636719 C 39.734375 164.214844 43.972656 183.714844 54.945312 196.253906 C 67.351562 210.429688 88.761719 217.285156 126.523438 219.175781 C 139.058594 219.804688 183.523438 221.417969 229.390625 215.824219 C 274.820312 210.28125 306.113281 199.324219 319.882812 184.140625 C 334.203125 168.351562 334.875 143.328125 321.414062 127.171875 C 314.726562 119.140625 281.109375 98.605469 273.578125 99.097656 C 271.390625 99.238281 269.730469 100.144531 268.496094 101.871094 C 266.621094 104.496094 266.0625 108.628906 267.082031 112.402344 C 268.359375 117.15625 275.355469 122.984375 282.117188 128.621094 C 292.019531 136.871094 302.261719 145.402344 300.695312 155.425781 C 299.589844 162.488281 293.058594 168.207031 280.144531 173.421875 C 267.171875 178.660156 241.804688 185.488281 194.636719 188.25 C 163.898438 190.050781 130.460938 189.527344 107.371094 186.886719 C 90.125 184.914062 80.039062 179.9375 74.675781 170.757812 C 69.507812 161.910156 69.335938 149.726562 70.667969 134.15625 C 71.054688 129.675781 72.265625 125.234375 73.4375 120.941406 C 75.148438 114.667969 76.765625 108.746094 75.761719 103.3125 C 74.863281 98.453125 68.320312 93.832031 63.050781 94.320312 Z M 63.050781 94.324219 " fill-opacity="1" fill-rule="nonzero"/><g clip-path="url(#8d7894b079)"><path fill="#000000" d="M 171.992188 290.21875 C 165.535156 290.21875 159.628906 287.574219 155.257812 282.597656 C 149.242188 275.742188 147.199219 265.699219 150.171875 257.605469 C 152.769531 250.542969 158.648438 246.003906 166.730469 244.820312 C 181.085938 242.726562 190.722656 253.03125 192.820312 264.300781 C 193.835938 269.746094 193.113281 275.191406 190.785156 279.636719 C 188.085938 284.789062 183.519531 288.226562 177.582031 289.578125 C 175.691406 290.007812 173.820312 290.21875 171.992188 290.21875 Z M 167.941406 253.132812 C 162.976562 253.859375 159.554688 256.410156 158.050781 260.507812 C 156.136719 265.710938 157.582031 272.515625 161.5625 277.050781 C 164.085938 279.925781 168.585938 283.007812 175.722656 281.382812 C 183.503906 279.617188 185.773438 272.304688 184.570312 265.839844 C 182.675781 255.660156 174.851562 252.125 167.941406 253.132812 Z M 167.941406 253.132812 " fill-opacity="1" fill-rule="nonzero"/></g></svg>