<svg xmlns="http://www.w3.org/2000/svg" xmlns:xlink="http://www.w3.org/1999/xlink" width="500" zoomAndPan="magnify" viewBox="0 0 375 374.999991" height="500" preserveAspectRatio="xMidYMid meet" version="1.0"><defs><clipPath id="313d3b8efc"><path d="M 42 70 L 335 70 L 335 305.238281 L 42 305.238281 Z M 42 70 " clip-rule="nonzero"/></clipPath></defs><rect x="-37.5" width="450" fill="#ffffff" y="-37.499999" height="449.999989" fill-opacity="1"/><rect x="-37.5" width="450" fill="#ffffff" y="-37.499999" height="449.999989" fill-opacity="1"/><g clip-path="url(#313d3b8efc)"><path fill="#000000" d="M 204.460938 305.25 C 193.800781 305.25 182.289062 304.910156 169.761719 304.238281 C 151.570312 303.265625 127.863281 301.429688 105.808594 295.84375 C 80.03125 289.316406 61.910156 278.824219 51.945312 264.667969 C 41.792969 250.246094 39.90625 231.992188 46.339844 210.417969 C 53.273438 187.152344 70.828125 179.109375 85.140625 181.457031 C 99.195312 183.761719 108.652344 195.503906 108.148438 210.007812 C 107.992188 214.546875 106.421875 218.445312 105.160156 221.574219 C 104.113281 224.179688 103.121094 226.640625 103.664062 227.863281 C 104.003906 228.625 105.347656 230.1875 110.554688 232.089844 C 134.117188 240.707031 235.714844 244.605469 259.46875 237.800781 C 261.691406 237.164062 263.894531 236.152344 266.222656 235.085938 C 266.777344 234.832031 267.339844 234.574219 267.90625 234.320312 C 269.796875 219.503906 263.722656 205.355469 256.804688 192.230469 C 251.144531 181.496094 238.121094 165.933594 225.53125 150.886719 C 209.960938 132.28125 195.253906 114.707031 192.34375 104.097656 C 189.699219 94.464844 191.210938 84.800781 196.382812 78.253906 C 200.792969 72.671875 207.585938 69.75 215.503906 70.027344 C 235.1875 70.722656 258.589844 92.023438 274.753906 109.773438 C 295.039062 132.042969 310.910156 156.21875 317.074219 169.257812 C 327.332031 190.953125 333.015625 210.324219 333.96875 226.820312 C 334.867188 242.449219 331.570312 255.96875 324.171875 267.003906 C 312.515625 284.382812 291.351562 295.546875 259.46875 301.132812 C 243.738281 303.890625 225.8125 305.246094 204.460938 305.25 Z M 80.039062 189.296875 C 67.09375 189.296875 57.867188 200.628906 54.246094 212.777344 C 48.574219 231.804688 50.066406 247.664062 58.691406 259.914062 C 78.429688 287.957031 131.785156 293.933594 170.203125 295.992188 C 221.832031 298.757812 293.25 298.285156 317.320312 262.398438 C 330.8125 242.285156 328.21875 212.136719 309.617188 172.789062 C 303.707031 160.289062 288.367188 136.980469 268.65625 115.335938 C 247.316406 91.902344 228.335938 78.742188 215.214844 78.28125 C 209.90625 78.09375 205.636719 79.855469 202.855469 83.375 C 199.304688 87.871094 198.351562 94.800781 200.300781 101.910156 C 202.738281 110.785156 217.539062 128.476562 231.859375 145.585938 C 244.726562 160.964844 258.03125 176.867188 264.101562 188.378906 C 271.664062 202.722656 278.953125 219.828125 275.699219 237.9375 L 275.296875 240.164062 L 273.203125 241.023438 C 272.042969 241.5 270.886719 242.03125 269.660156 242.59375 C 267.152344 243.742188 264.5625 244.929688 261.738281 245.738281 C 236.4375 252.984375 132.800781 249.019531 107.722656 239.847656 C 101.398438 237.535156 97.714844 234.792969 96.125 231.222656 C 94.160156 226.800781 95.863281 222.578125 97.507812 218.488281 C 98.632812 215.695312 99.792969 212.808594 99.902344 209.722656 C 100.320312 197.71875 92.121094 190.972656 83.808594 189.609375 C 82.519531 189.398438 81.261719 189.296875 80.039062 189.296875 Z M 80.039062 189.296875 " fill-opacity="1" fill-rule="nonzero"/></g></svg>