<svg xmlns="http://www.w3.org/2000/svg" xmlns:xlink="http://www.w3.org/1999/xlink" width="500" zoomAndPan="magnify" viewBox="0 0 375 374.999991" height="500" preserveAspectRatio="xMidYMid meet" version="1.0"><defs><clipPath id="2b7d9ef89b"><path d="M 54 50 L 320 50 L 320 324.972656 L 54 324.972656 Z M 54 50 " clip-rule="nonzero"/></clipPath></defs><rect x="-37.5" width="450" fill="#ffffff" y="-37.499999" height="449.999989" fill-opacity="1"/><rect x="-37.5" width="450" fill="#ffffff" y="-37.499999" height="449.999989" fill-opacity="1"/><g clip-path="url(#2b7d9ef89b)"><path fill="#000000" d="M 186.164062 324.976562 C 173.027344 324.976562 160.394531 323.824219 148.914062 321.503906 C 114.039062 314.453125 89.128906 296.804688 76.871094 270.472656 C 69.699219 255.0625 67.304688 238.597656 69.753906 221.539062 C 71.890625 206.636719 77.746094 191.171875 87.144531 175.578125 C 104.433594 146.898438 129.75 124 147.113281 110.34375 L 114.019531 106.113281 C 111.082031 108.210938 107.089844 111.785156 102.890625 115.542969 C 91.542969 125.703125 78.769531 137.140625 68.710938 137.140625 C 68.070312 137.140625 67.441406 137.09375 66.824219 136.996094 C 61.996094 136.246094 57.484375 132.960938 55.332031 128.628906 C 53.523438 124.984375 53.5625 121.0625 55.441406 117.582031 L 55.683594 117.191406 C 60.242188 110.667969 63.4375 102.324219 66.824219 93.492188 C 73.894531 75.035156 81.90625 54.117188 105.089844 50.882812 C 113.480469 49.710938 125.992188 52.152344 138.09375 54.519531 C 146.394531 56.140625 154.234375 57.671875 160.429688 58.042969 C 182.863281 59.382812 206.054688 57.878906 228.480469 56.417969 C 247.851562 55.160156 267.878906 53.855469 287.371094 54.394531 C 307.269531 54.941406 317.945312 67.078125 319.699219 78.863281 C 321.15625 88.636719 316.617188 102.136719 299.046875 108.015625 C 291.898438 110.40625 283.625 111.957031 275.621094 113.457031 C 268.707031 114.75 261.5625 116.089844 255.222656 117.953125 C 211.945312 130.675781 170.296875 156.238281 146.53125 184.65625 C 127.023438 207.984375 119.078125 230.027344 124.738281 245.132812 C 129.558594 258.007812 143.820312 266.414062 167.121094 270.117188 C 194.941406 274.535156 225.765625 271.28125 256.261719 260.703125 C 259.6875 259.519531 263.5625 257.597656 267.667969 255.570312 C 281.078125 248.933594 297.769531 240.675781 309.929688 253.875 C 316.570312 261.078125 318.75 268.554688 316.410156 276.097656 C 308.058594 303 242.339844 318.285156 239.542969 318.921875 C 221.933594 322.941406 203.609375 324.976562 186.164062 324.976562 Z M 112.109375 97.8125 L 167.710938 104.925781 L 159.660156 110.839844 C 143.460938 122.746094 113.386719 147.523438 93.988281 179.703125 C 75.058594 211.105469 71.738281 240.507812 84.113281 267.101562 C 95.417969 291.382812 117.75 307.050781 150.496094 313.671875 C 176.15625 318.859375 207.964844 317.933594 237.765625 311.132812 C 262.484375 305.492188 303.617188 290.351562 308.777344 273.726562 C 310.234375 269.039062 308.6875 264.316406 304.054688 259.289062 C 296.53125 251.125 285.695312 255.5625 271.210938 262.730469 C 266.875 264.875 262.78125 266.902344 258.878906 268.253906 C 227.144531 279.261719 194.980469 282.632812 165.871094 278.007812 C 139.515625 273.820312 123.160156 263.703125 117.253906 247.9375 C 110.460938 229.796875 118.679688 205.503906 140.402344 179.53125 C 153.285156 164.121094 171.09375 149.425781 191.898438 137.027344 C 210.933594 125.683594 232.050781 116.4375 252.96875 110.289062 C 259.695312 108.308594 267.042969 106.933594 274.148438 105.601562 C 282.242188 104.085938 289.886719 102.65625 296.511719 100.4375 C 309.378906 96.132812 312.84375 87.078125 311.796875 80.039062 C 310.046875 68.261719 298.15625 62.683594 287.148438 62.378906 C 268.03125 61.855469 248.191406 63.144531 229 64.390625 C 206.328125 65.867188 182.886719 67.390625 159.953125 66.019531 C 153.226562 65.617188 145.132812 64.035156 136.5625 62.359375 C 125.105469 60.121094 113.257812 57.808594 106.195312 58.792969 C 87.683594 61.378906 81.171875 78.367188 74.28125 96.351562 C 70.910156 105.15625 67.421875 114.257812 62.382812 121.546875 C 61.835938 122.671875 61.871094 123.828125 62.488281 125.074219 C 63.492188 127.09375 65.777344 128.75 68.050781 129.101562 C 74.617188 130.125 88.429688 117.765625 97.5625 109.589844 C 102.808594 104.890625 107.339844 100.835938 110.894531 98.582031 Z M 112.109375 97.8125 " fill-opacity="1" fill-rule="nonzero"/></g><path fill="#000000" d="M 215.59375 232.871094 C 209.542969 232.871094 204.1875 231.101562 199.929688 227.660156 C 195.257812 223.882812 192.191406 218.292969 191.289062 211.914062 C 189.582031 199.789062 196.195312 185.6875 211.816406 183.429688 C 221.011719 182.097656 229.488281 185.421875 235.070312 192.542969 C 240.976562 200.074219 242.597656 210.351562 239.207031 218.722656 C 236.109375 226.378906 229.351562 231.289062 220.183594 232.546875 C 218.613281 232.761719 217.082031 232.871094 215.59375 232.871094 Z M 212.386719 187.382812 L 212.960938 191.335938 C 204.921875 192.5 197.617188 199.554688 199.203125 210.796875 C 200.257812 218.296875 206.109375 226.417969 219.09375 224.632812 C 225.398438 223.765625 229.792969 220.683594 231.804688 215.722656 C 234.101562 210.046875 232.890625 202.710938 228.785156 197.472656 C 226.570312 194.648438 221.566406 190.09375 212.960938 191.335938 Z M 212.386719 187.382812 " fill-opacity="1" fill-rule="nonzero"/></svg>