<svg xmlns="http://www.w3.org/2000/svg" xmlns:xlink="http://www.w3.org/1999/xlink" width="500" zoomAndPan="magnify" viewBox="0 0 375 374.999991" height="500" preserveAspectRatio="xMidYMid meet" version="1.0"><defs><clipPath id="5d80a1f369"><path d="M 50.625 50 L 323 50 L 323 329.921875 L 50.625 329.921875 Z M 50.625 50 " clip-rule="nonzero"/></clipPath></defs><rect x="-37.5" width="450" fill="#ffffff" y="-37.499999" height="449.999989" fill-opacity="1"/><rect x="-37.5" width="450" fill="#ffffff" y="-37.499999" height="449.999989" fill-opacity="1"/><g clip-path="url(#5d80a1f369)"><path fill="#000000" d="M 186.269531 329.878906 C 172.695312 329.878906 159.527344 328.707031 147.589844 326.324219 C 109.429688 318.714844 83.375 299.429688 72.238281 270.554688 C 60.890625 241.125 65.375 208.394531 85.214844 175.902344 C 99.476562 152.539062 122.085938 129.042969 147.910156 110.605469 C 145.175781 110.34375 142.445312 110.074219 139.710938 109.808594 C 130.570312 108.910156 121.128906 107.988281 111.832031 107.289062 C 108.441406 109.199219 103.679688 113.332031 98.660156 117.6875 C 88.101562 126.851562 75.464844 137.816406 64.390625 137.816406 C 61.699219 137.816406 59.101562 137.167969 56.644531 135.6875 L 56.25 135.449219 L 55.917969 135.128906 C 52.808594 132.125 50.921875 128.027344 50.859375 124.160156 C 50.84375 123.082031 50.816406 121.28125 61.359375 96.816406 C 65.425781 87.386719 72.105469 72.324219 73.84375 69.480469 C 88.894531 44.890625 109.996094 49.132812 130.398438 53.234375 C 136.015625 54.363281 141.828125 55.53125 147.453125 56.070312 C 168.558594 58.089844 192.449219 57.371094 215.554688 56.671875 C 222.058594 56.476562 228.199219 56.289062 234.289062 56.164062 C 241.121094 56.019531 248.148438 55.378906 255.589844 54.703125 C 269.554688 53.429688 283.992188 52.113281 297.6875 54.226562 C 308.550781 55.90625 317.457031 63.355469 320.929688 73.675781 C 324.164062 83.285156 321.820312 93.445312 314.65625 100.851562 C 308.113281 107.617188 290.59375 111.085938 275.136719 114.152344 C 269.40625 115.285156 264 116.355469 260.335938 117.402344 C 208.832031 132.082031 163.980469 160.183594 140.363281 192.574219 C 121.519531 218.414062 116.492188 238.761719 125.421875 253.046875 C 135.605469 269.34375 171.707031 282.417969 226.890625 272.621094 C 239.785156 270.332031 254.179688 265.246094 266.882812 260.757812 C 269.636719 259.785156 272.542969 258.355469 275.617188 256.839844 C 286.605469 251.433594 301.652344 244.03125 313.640625 259.492188 C 319.167969 266.625 320.707031 273.914062 318.203125 281.15625 C 310.117188 304.582031 259.699219 318.949219 244.441406 322.796875 C 225.816406 327.488281 205.628906 329.878906 186.269531 329.878906 Z M 154.5625 102.589844 C 155.941406 102.589844 157.574219 102.882812 158.890625 104.292969 C 160.683594 106.210938 160.5 108.761719 160.203125 110.515625 L 159.914062 112.246094 L 158.457031 113.222656 C 131.097656 131.574219 106.941406 155.964844 92.175781 180.148438 C 73.445312 210.832031 69.300781 240.261719 79.851562 267.625 C 92.585938 300.644531 124.585938 313.421875 149.1875 318.328125 C 177.019531 323.878906 211.878906 322.589844 242.445312 314.890625 C 270.476562 307.824219 305.121094 294.050781 310.492188 278.496094 C 312.058594 273.957031 310.976562 269.371094 307.1875 264.484375 C 299.816406 254.972656 291.703125 258.015625 279.21875 264.15625 C 276.066406 265.707031 272.808594 267.3125 269.664062 268.421875 C 256.605469 273.039062 241.871094 278.242188 228.320312 280.648438 C 216.1875 282.804688 203.421875 284 190.984375 284 C 159.660156 284 130.402344 276.410156 118.503906 257.367188 C 107.636719 239.980469 112.769531 216.5625 133.769531 187.769531 C 147.042969 169.566406 165.878906 153.113281 189.753906 138.859375 C 210.351562 126.566406 233.984375 116.433594 258.097656 109.558594 C 262.082031 108.421875 267.652344 107.320312 273.546875 106.152344 C 285.683594 103.746094 304.019531 100.113281 308.792969 95.183594 C 313.871094 89.933594 315.476562 83.042969 313.199219 76.277344 C 310.699219 68.859375 304.277344 63.496094 296.441406 62.289062 C 283.734375 60.328125 269.804688 61.597656 256.328125 62.824219 C 249.078125 63.484375 241.578125 64.167969 234.460938 64.316406 C 228.40625 64.441406 222.285156 64.625 215.800781 64.820312 C 192.441406 65.527344 168.289062 66.257812 146.675781 64.1875 C 140.632812 63.609375 134.609375 62.398438 128.789062 61.226562 C 108.726562 57.195312 92.875 54.011719 80.804688 73.734375 C 78.445312 77.585938 60.425781 118.875 59.03125 124.335938 C 59.15625 125.839844 59.992188 127.570312 61.253906 128.925781 C 68.828125 132.78125 82.949219 120.519531 93.3125 111.527344 C 99.480469 106.175781 104.804688 101.554688 109.226562 99.453125 L 110.203125 98.992188 L 111.277344 99.070312 C 121.042969 99.785156 130.9375 100.753906 140.507812 101.691406 C 144.171875 102.050781 147.84375 102.410156 151.511719 102.753906 C 151.90625 102.792969 152.433594 102.742188 152.996094 102.6875 C 153.441406 102.640625 153.980469 102.589844 154.5625 102.589844 Z M 58.980469 124.558594 Z M 58.980469 124.558594 " fill-opacity="1" fill-rule="nonzero"/></g></svg>