<svg xmlns="http://www.w3.org/2000/svg" xmlns:xlink="http://www.w3.org/1999/xlink" width="500" zoomAndPan="magnify" viewBox="0 0 375 374.999991" height="500" preserveAspectRatio="xMidYMid meet" version="1.0"><defs><clipPath id="7d0702bdb9"><path d="M 77 106 L 302 106 L 302 337.722656 L 77 337.722656 Z M 77 106 " clip-rule="nonzero"/></clipPath></defs><rect x="-37.5" width="450" fill="#ffffff" y="-37.499999" height="449.999989" fill-opacity="1"/><rect x="-37.5" width="450" fill="#ffffff" y="-37.499999" height="449.999989" fill-opacity="1"/><g clip-path="url(#7d0702bdb9)"><path fill="#000000" d="M 188.632812 337.75 C 177.566406 337.75 166.910156 336.777344 157.238281 334.820312 C 127.773438 328.859375 106.71875 313.921875 96.351562 291.628906 C 84.875 266.957031 87.789062 239.949219 105.007812 211.359375 C 119.265625 187.6875 140 168.691406 154.585938 157.109375 L 128.148438 153.722656 C 125.71875 155.484375 122.441406 158.421875 118.996094 161.503906 C 109.394531 170.109375 98.585938 179.792969 89.9375 179.792969 C 89.375 179.792969 88.828125 179.753906 88.285156 179.667969 C 84.070312 179.011719 80.136719 176.144531 78.257812 172.359375 C 76.664062 169.148438 76.699219 165.683594 78.359375 162.613281 L 78.589844 162.234375 C 82.386719 156.800781 85.0625 149.8125 87.894531 142.410156 C 93.886719 126.765625 100.675781 109.027344 120.441406 106.265625 C 127.574219 105.269531 138.132812 107.332031 148.339844 109.328125 C 155.296875 110.6875 161.871094 111.976562 167.039062 112.285156 C 185.863281 113.410156 205.332031 112.144531 224.160156 110.917969 C 240.445312 109.859375 257.292969 108.761719 273.683594 109.214844 C 290.695312 109.683594 299.824219 120.101562 301.328125 130.214844 C 302.578125 138.625 298.695312 150.234375 283.640625 155.277344 C 277.601562 157.300781 270.632812 158.605469 263.890625 159.871094 C 258.09375 160.957031 252.101562 162.078125 246.800781 163.640625 C 210.527344 174.3125 175.625 195.746094 155.714844 219.574219 C 139.441406 239.046875 132.796875 257.40625 137.488281 269.933594 C 141.472656 280.582031 153.324219 287.542969 172.714844 290.625 C 196.007812 294.332031 221.824219 291.601562 247.371094 282.734375 C 250.21875 281.746094 253.460938 280.140625 256.894531 278.4375 C 268.3125 272.785156 282.523438 265.75 292.992188 277.121094 C 296.917969 281.382812 301.066406 288.167969 298.546875 296.296875 C 291.445312 319.191406 235.957031 332.109375 233.597656 332.648438 C 218.761719 336.035156 203.332031 337.75 188.632812 337.75 Z M 126.296875 145.707031 L 174.429688 151.867188 L 166.660156 157.582031 C 153.078125 167.570312 127.867188 188.359375 111.613281 215.34375 C 95.796875 241.601562 93.015625 266.171875 103.339844 288.375 C 112.765625 308.640625 131.414062 321.722656 158.765625 327.257812 C 180.257812 331.605469 206.90625 330.832031 231.882812 325.125 C 252.542969 320.40625 286.910156 307.785156 291.183594 294.007812 C 292.347656 290.25 291.085938 286.4375 287.324219 282.351562 C 281.222656 275.726562 272.667969 279.238281 260.316406 285.355469 C 256.65625 287.164062 253.203125 288.875 249.898438 290.023438 C 223.152344 299.304688 196.046875 302.148438 171.503906 298.246094 C 149.171875 294.695312 135.296875 286.078125 130.269531 272.640625 C 124.492188 257.210938 131.429688 236.609375 149.800781 214.625 C 170.949219 189.3125 206.398438 167.484375 244.625 156.238281 C 250.300781 154.566406 256.488281 153.40625 262.472656 152.285156 C 269.253906 151.015625 275.660156 149.8125 281.195312 147.960938 C 291.714844 144.4375 294.554688 137.070312 293.703125 131.351562 C 292.671875 124.421875 286.019531 117.273438 273.472656 116.925781 C 257.4375 116.484375 240.769531 117.570312 224.660156 118.617188 C 205.597656 119.859375 185.882812 121.140625 166.582031 119.984375 C 160.894531 119.644531 154.078125 118.3125 146.859375 116.902344 C 137.277344 115.027344 127.363281 113.089844 121.511719 113.90625 C 106.246094 116.039062 100.828125 130.191406 95.09375 145.171875 C 92.253906 152.59375 89.316406 160.265625 85.0625 166.4375 C 84.804688 166.976562 84.597656 167.789062 85.164062 168.929688 C 85.925781 170.464844 87.738281 171.773438 89.46875 172.042969 C 94.75 172.871094 106.714844 162.15625 113.855469 155.757812 C 118.28125 151.792969 122.101562 148.367188 125.125 146.453125 Z M 126.296875 145.707031 " fill-opacity="1" fill-rule="nonzero"/></g><path fill="#000000" d="M 205.730469 87.136719 C 197.199219 87.136719 192.0625 83.230469 189.492188 80.460938 C 184.140625 74.695312 182.367188 65.972656 184.976562 58.238281 C 187.503906 50.730469 193.578125 45.621094 201.632812 44.21875 C 208.628906 43 214.886719 44.15625 219.722656 47.5625 C 223.964844 50.550781 226.945312 55.191406 228.113281 60.625 C 230.289062 70.773438 225.652344 83.042969 214.117188 86.007812 C 211.019531 86.804688 208.230469 87.136719 205.730469 87.136719 Z M 206.660156 51.496094 C 205.414062 51.496094 204.164062 51.609375 202.949219 51.820312 C 195.855469 53.054688 193.21875 57.914062 192.28125 60.703125 C 190.589844 65.714844 191.742188 71.546875 195.140625 75.210938 C 198.863281 79.222656 204.921875 80.402344 212.199219 78.535156 C 219.242188 76.722656 221.988281 68.832031 220.574219 62.246094 C 218.863281 54.28125 212.78125 51.496094 206.660156 51.496094 Z M 206.660156 51.496094 " fill-opacity="1" fill-rule="nonzero"/></svg>