<svg xmlns="http://www.w3.org/2000/svg" xmlns:xlink="http://www.w3.org/1999/xlink" width="500" zoomAndPan="magnify" viewBox="0 0 375 374.999991" height="500" preserveAspectRatio="xMidYMid meet" version="1.0"><rect x="-37.5" width="450" fill="#ffffff" y="-37.499999" height="449.999989" fill-opacity="1"/><rect x="-37.5" width="450" fill="#ffffff" y="-37.499999" height="449.999989" fill-opacity="1"/><path fill="#000000" d="M 248.351562 149.4375 C 255.863281 148.402344 265.691406 141.902344 265.796875 141.832031 C 266.871094 141.113281 267.570312 139.960938 267.714844 138.675781 C 268.851562 133.792969 250.398438 120.742188 243.742188 130.390625 C 240.523438 135.375 243.3125 144.03125 244.242188 146.566406 C 244.886719 148.320312 246.550781 149.4375 248.351562 149.4375 Z M 255.644531 137.570312 C 251.910156 139.28125 250.757812 140.933594 250.988281 135.726562 C 252.449219 135.851562 254.105469 136.613281 255.644531 137.570312 Z M 255.644531 137.570312 " fill-opacity="1" fill-rule="nonzero"/><path fill="#000000" d="M 313.832031 187.789062 C 313.007812 186.929688 311.867188 186.441406 310.671875 186.441406 L 214.609375 186.441406 C 222.46875 178.449219 253.292969 163.171875 287.527344 150.753906 C 289.425781 150.066406 290.613281 148.167969 290.394531 146.15625 C 288.976562 133.023438 276.128906 121.324219 264.023438 115.554688 C 231.683594 100.429688 223.628906 127.070312 228.773438 149.738281 C 228.773438 149.738281 206.785156 162.085938 206.785156 162.085938 C 183.234375 175.304688 184.34375 191.121094 187.101562 199.367188 C 189.3125 205.988281 195.269531 210.703125 202.277344 211.375 L 215.804688 212.671875 C 201.742188 218.191406 190.773438 225.226562 185.582031 228.847656 C 183.351562 224.796875 178.84375 212.882812 175.265625 179.613281 C 169.464844 125.664062 146.558594 89.75 145.585938 88.246094 C 143.691406 85.101562 138.476562 85.898438 137.675781 89.53125 C 137.675781 89.53125 131.292969 114.160156 131.292969 114.160156 C 130.90625 115.636719 131.320312 117.210938 132.378906 118.308594 C 145.066406 131.480469 148.875 177.871094 149.363281 196.566406 C 134.265625 216.671875 106.933594 247 93.035156 246.792969 C 80.257812 244.71875 86.667969 204.941406 89.851562 189.882812 C 91.046875 184.960938 83.90625 182.382812 81.675781 186.925781 C 80.703125 188.847656 57.945312 234.261719 68.144531 260.066406 C 71.109375 267.566406 76.480469 272.765625 84.097656 275.519531 C 113.910156 286.308594 146.613281 246.199219 160.410156 226.601562 C 170.808594 281.304688 229.636719 289.832031 230.273438 289.917969 C 232.804688 290.308594 235.296875 288.152344 235.230469 285.566406 C 235.230469 285.566406 235.230469 264.425781 235.230469 264.425781 C 235.230469 262.40625 233.859375 260.648438 231.898438 260.164062 C 204.980469 253.511719 204.742188 247.996094 204.746094 247.765625 C 204.789062 244.234375 213.164062 234.191406 289.792969 217.304688 C 293.648438 216.457031 296.476562 215.828125 297.871094 215.464844 C 314.160156 211.230469 316.859375 189.484375 313.832031 187.789062 Z M 295.648438 206.976562 C 237.160156 219.046875 193.425781 233.917969 195.988281 247.65625 C 195.882812 255.96875 205.316406 262.242188 226.472656 267.832031 L 226.472656 280.265625 C 211.835938 276.890625 170.214844 263.011719 167.722656 214.015625 C 167.632812 211.71875 165.640625 209.828125 163.347656 209.851562 C 161.847656 209.851562 160.417969 210.628906 159.609375 211.960938 C 148.316406 230.554688 113.308594 276.761719 87.066406 267.265625 C 70.691406 260.738281 73.265625 241.558594 76.730469 225.632812 C 76.738281 235.414062 78.109375 244.699219 82.292969 250.125 C 104.019531 274.734375 153.398438 204.90625 157.296875 200.582031 C 157.867188 199.804688 158.167969 198.863281 158.148438 197.898438 C 158.101562 195.261719 156.855469 134.992188 140.347656 114.132812 L 143.40625 102.3125 C 150.460938 116.109375 162.660156 144.332031 166.558594 180.554688 C 170.625 218.363281 176.660156 238.039062 184.484375 239.03125 C 185.613281 239.175781 186.804688 238.855469 187.71875 238.136719 C 187.957031 237.953125 211.570312 219.714844 240.074219 214.847656 C 242.238281 214.476562 243.792969 212.558594 243.710938 210.359375 C 243.632812 208.164062 241.941406 206.363281 239.757812 206.152344 L 203.113281 202.640625 C 199.546875 202.296875 196.519531 199.921875 195.402344 196.582031 C 192.035156 186.496094 197.300781 177.464844 211.058594 169.742188 L 235.90625 155.792969 C 237.648438 154.816406 238.507812 152.78125 238 150.84375 C 236.414062 144.832031 233.691406 126.492188 241.726562 121.265625 C 253.382812 115.101562 278.472656 132.605469 280.957031 143.820312 C 248.511719 155.789062 199.199219 176.789062 204.351562 192.222656 C 204.949219 194.011719 206.621094 195.21875 208.503906 195.21875 L 305.550781 195.21875 C 304.46875 199.453125 301.867188 205.335938 295.648438 206.976562 Z M 295.648438 206.976562 " fill-opacity="1" fill-rule="nonzero"/></svg>