<svg xmlns="http://www.w3.org/2000/svg" xmlns:xlink="http://www.w3.org/1999/xlink" width="500" zoomAndPan="magnify" viewBox="0 0 375 374.999991" height="500" preserveAspectRatio="xMidYMid meet" version="1.0"><defs><clipPath id="07c582db27"><path d="M 292 101.828125 L 314 101.828125 L 314 124 L 292 124 Z M 292 101.828125 " clip-rule="nonzero"/></clipPath><clipPath id="bef41446f5"><path d="M 19.335938 97 L 163 97 L 163 246.859375 L 19.335938 246.859375 Z M 19.335938 97 " clip-rule="nonzero"/></clipPath></defs><rect x="-37.5" width="450" fill="#ffffff" y="-37.499999" height="449.999989" fill-opacity="1"/><rect x="-37.5" width="450" fill="#ffffff" y="-37.499999" height="449.999989" fill-opacity="1"/><path fill="#000000" d="M 242.089844 241.996094 C 236.464844 241.996094 231.070312 241.589844 226.410156 240.769531 C 215.347656 238.824219 206.25 234.101562 200.109375 227.121094 C 193.425781 219.527344 190.691406 209.652344 192.199219 198.570312 C 193.140625 191.65625 201.765625 171.96875 206.855469 166.492188 C 209.121094 164.054688 212.066406 163.015625 214.550781 163.792969 C 216.710938 164.464844 218.171875 166.390625 218.5625 169.074219 C 218.988281 172.011719 217.847656 177.074219 216.644531 182.429688 C 215.648438 186.855469 214.621094 191.429688 214.601562 194.324219 C 214.5625 199.921875 216.371094 209.65625 219.289062 212.160156 C 223.851562 216.078125 233.238281 218.074219 245.050781 217.628906 C 255.28125 217.246094 266.308594 214.988281 272.496094 212.007812 C 277.941406 209.386719 278.265625 207.914062 277.519531 201.578125 C 276.96875 196.921875 273.394531 192.460938 269.617188 187.738281 C 264.902344 181.855469 260.03125 175.769531 260.257812 168.300781 C 260.410156 163.351562 263.277344 158.460938 267.226562 156.40625 C 270.242188 154.839844 273.5625 155.070312 276.578125 157.054688 C 278.402344 158.253906 280.675781 161.617188 284.234375 167 C 286.210938 169.984375 288.253906 173.074219 290.136719 175.507812 C 292.578125 178.65625 293.667969 179.257812 293.949219 179.371094 C 294.300781 179.234375 294.832031 178.25 294.96875 173.667969 C 295 172.527344 295.03125 171.542969 295.179688 170.769531 C 297.46875 158.722656 300.753906 155.371094 303.359375 153.796875 C 305.601562 152.441406 308.148438 152.183594 310.925781 153.035156 C 315.304688 154.371094 316.035156 160.328125 316.882812 167.222656 C 317.75 174.296875 318.734375 182.3125 323.796875 183.027344 C 329.449219 183.832031 333.171875 183.25 334.859375 181.308594 C 336.710938 179.179688 336.667969 174.867188 334.730469 168.117188 C 334.496094 167.304688 333.84375 165.882812 333.15625 164.378906 C 330.882812 159.40625 328.050781 153.222656 330.34375 149.429688 C 331.035156 148.285156 332.492188 146.890625 335.503906 146.730469 C 339.054688 146.539062 343.519531 150.078125 348.738281 157.253906 C 352.398438 162.285156 355.988281 168.605469 357.09375 171.960938 C 360.183594 181.34375 358.191406 189.984375 351.492188 196.292969 C 342.128906 205.105469 324.824219 208.039062 312.089844 202.972656 C 309.523438 201.949219 307.773438 200.460938 306.367188 199.261719 C 305.234375 198.296875 304.335938 197.53125 303.472656 197.398438 C 302.746094 197.285156 301.75 197.597656 300.507812 198.335938 C 303.417969 208.652344 301.722656 217.519531 295.464844 224.710938 C 287.203125 234.199219 272.886719 238.410156 262.332031 240.273438 C 255.835938 241.417969 248.800781 241.996094 242.089844 241.996094 Z M 212.863281 167.84375 C 212.132812 167.84375 211.046875 168.300781 210.003906 169.421875 C 205.949219 173.789062 197.339844 192.679688 196.460938 199.148438 C 195.125 208.960938 197.503906 217.648438 203.335938 224.277344 C 208.828125 230.519531 217.0625 234.757812 227.15625 236.53125 C 236.910156 238.25 250.105469 238.058594 261.582031 236.035156 C 279.46875 232.878906 288.117188 226.597656 292.21875 221.886719 C 297.738281 215.546875 298.988281 207.539062 295.933594 198.082031 L 295.453125 196.585938 L 296.730469 195.671875 C 303.277344 190.980469 306.402344 193.640625 309.15625 195.988281 C 310.441406 197.082031 311.769531 198.210938 313.679688 198.972656 C 324.796875 203.398438 340.4375 200.789062 348.542969 193.15625 C 354.035156 187.988281 355.578125 181.121094 353.007812 173.304688 C 352.175781 170.785156 348.980469 164.898438 345.261719 159.785156 C 340.46875 153.199219 337.128906 150.949219 335.734375 151.027344 C 334.824219 151.074219 334.246094 151.285156 334.023438 151.65625 C 332.910156 153.5 335.71875 159.636719 337.066406 162.585938 C 337.859375 164.3125 338.542969 165.808594 338.863281 166.929688 C 342.023438 177.933594 339.945312 182.019531 338.105469 184.132812 C 335.359375 187.289062 330.484375 188.324219 323.195312 187.289062 C 314.867188 186.109375 313.617188 175.929688 312.613281 167.746094 C 312.089844 163.496094 311.375 157.671875 309.667969 157.148438 C 308.085938 156.667969 306.75 156.773438 305.585938 157.480469 C 301.628906 159.867188 300.011719 168.371094 299.40625 171.574219 C 299.320312 172.015625 299.292969 172.921875 299.269531 173.796875 C 299.160156 177.359375 298.984375 183.320312 294.195312 183.679688 C 290.492188 183.953125 286.628906 178.421875 280.648438 169.371094 C 278.308594 165.832031 275.394531 161.425781 274.214844 160.648438 C 272.507812 159.527344 270.824219 159.386719 269.210938 160.226562 C 266.660156 161.550781 264.660156 165.078125 264.558594 168.433594 C 264.378906 174.316406 268.554688 179.53125 272.972656 185.050781 C 276.964844 190.035156 281.09375 195.191406 281.789062 201.074219 C 282.71875 208.917969 281.734375 212.332031 274.359375 215.886719 C 267.585938 219.148438 256.144531 221.523438 245.210938 221.929688 C 237.640625 222.214844 223.84375 221.746094 216.484375 215.425781 C 211.261719 210.941406 210.277344 197.617188 210.296875 194.292969 C 210.320312 190.9375 211.402344 186.132812 212.445312 181.484375 C 213.464844 176.964844 214.617188 171.84375 214.304688 169.691406 C 214.21875 169.117188 213.976562 168.121094 213.269531 167.898438 C 213.148438 167.863281 213.015625 167.84375 212.863281 167.84375 Z M 212.863281 167.84375 " fill-opacity="1" fill-rule="nonzero"/><path fill="#000000" d="M 291.449219 150.253906 C 289.566406 150.253906 287.570312 149.726562 285.574219 148.480469 C 281.621094 146.011719 279.605469 142.277344 280.039062 138.238281 C 280.503906 133.90625 283.652344 129.980469 287.878906 128.460938 C 291.824219 127.046875 295.921875 128.03125 299.128906 131.171875 C 303.996094 135.933594 303.015625 142.167969 300.042969 145.949219 C 298.125 148.386719 294.992188 150.253906 291.449219 150.253906 Z M 291.453125 132.128906 C 290.660156 132.128906 289.9375 132.292969 289.332031 132.511719 C 286.707031 133.453125 284.597656 136.054688 284.316406 138.695312 C 284.058594 141.101562 285.28125 143.222656 287.851562 144.832031 C 291.613281 147.179688 294.949219 145.46875 296.664062 143.285156 C 298.546875 140.894531 299.109375 137.167969 296.121094 134.246094 C 294.476562 132.636719 292.851562 132.128906 291.453125 132.128906 Z M 291.453125 132.128906 " fill-opacity="1" fill-rule="nonzero"/><path fill="#000000" d="M 317.855469 146.785156 C 317.367188 146.785156 316.855469 146.761719 316.320312 146.710938 C 311.003906 146.222656 307.234375 141.976562 307.152344 136.394531 C 307.113281 133.777344 307.914062 131.246094 309.40625 129.261719 C 311.109375 126.992188 313.558594 125.601562 316.488281 125.242188 C 320.667969 124.730469 324.355469 126.425781 326.597656 129.894531 C 329.003906 133.613281 329.171875 138.503906 327.019531 142.066406 C 325.910156 143.894531 323.296875 146.785156 317.855469 146.785156 Z M 317.007812 129.515625 C 313.109375 129.992188 311.410156 133.28125 311.453125 136.328125 C 311.492188 138.921875 312.894531 142.074219 316.714844 142.425781 C 319.847656 142.71875 322.136719 141.820312 323.335938 139.835938 C 324.636719 137.6875 324.492188 134.5625 322.988281 132.234375 C 322.214844 131.039062 320.414062 129.097656 317.007812 129.515625 Z M 317.007812 129.515625 " fill-opacity="1" fill-rule="nonzero"/><g clip-path="url(#07c582db27)"><path fill="#000000" d="M 302.515625 123.390625 C 298.167969 123.390625 295.714844 121.1875 294.550781 119.695312 C 292.054688 116.496094 291.628906 111.734375 293.484375 107.851562 C 295.242188 104.183594 298.632812 102.042969 302.796875 101.980469 C 309.125 101.871094 312.964844 106.863281 313.503906 111.839844 C 314.105469 117.375 310.8125 121.992188 305.5 123.074219 C 304.417969 123.292969 303.425781 123.390625 302.515625 123.390625 Z M 302.867188 106.28125 C 299.484375 106.335938 297.96875 108.453125 297.367188 109.710938 C 296.214844 112.117188 296.453125 115.136719 297.945312 117.050781 C 299.339844 118.835938 301.65625 119.460938 304.644531 118.855469 C 308.460938 118.078125 309.515625 114.960938 309.226562 112.300781 C 308.910156 109.386719 306.820312 106.28125 302.976562 106.28125 C 302.941406 106.28125 302.902344 106.28125 302.867188 106.28125 Z M 302.867188 106.28125 " fill-opacity="1" fill-rule="nonzero"/></g><g clip-path="url(#bef41446f5)"><path fill="#000000" d="M 87.335938 246.851562 C 72.832031 246.851562 58.429688 242.382812 45.132812 233.679688 C 30.664062 224.210938 23.246094 212.585938 23.078125 199.128906 C 22.921875 186.792969 28.816406 173.285156 40.59375 158.976562 C 52.164062 144.921875 66.042969 134.210938 73.890625 128.707031 C 69.105469 128.695312 64.207031 128.628906 59.453125 128.5625 C 48.910156 128.421875 38.007812 128.273438 27.625 128.699219 C 27.503906 128.746094 27.296875 128.832031 27.136719 128.898438 C 25.851562 129.433594 23.699219 130.332031 21.824219 129.421875 C 21.121094 129.082031 20.191406 128.34375 19.746094 126.765625 C 19.347656 125.351562 19.820312 123.664062 21.230469 121.464844 C 26.324219 113.507812 43.800781 99.242188 49.566406 98.339844 C 59.101562 96.84375 70.539062 97.109375 81.601562 97.363281 C 90.035156 97.558594 98.753906 97.761719 106.210938 97.144531 L 106.425781 97.125 L 106.640625 97.160156 C 113.066406 98.132812 119.75 98.328125 126.214844 98.515625 C 131.289062 98.660156 136.535156 98.8125 141.699219 99.335938 C 142.472656 99.414062 143.285156 99.488281 144.117188 99.5625 C 149.941406 100.097656 156.539062 100.699219 161.09375 103.433594 L 161.699219 103.796875 L 161.910156 104.476562 C 162.425781 106.128906 161.945312 108.695312 155.035156 116.199219 C 151.109375 120.464844 146.808594 124.441406 145.378906 125.625 C 135.949219 133.414062 129.289062 133.820312 120.859375 134.335938 C 117.566406 134.535156 114.160156 134.742188 110.109375 135.398438 C 90.792969 138.527344 72.195312 146.871094 66.722656 151.445312 C 59.777344 157.25 57.648438 172.207031 58.832031 180.324219 C 60.945312 194.816406 75.199219 203.386719 83.503906 207.207031 C 95.480469 212.710938 110.601562 215.660156 122.03125 214.71875 C 131.011719 213.980469 134.332031 213.390625 138.570312 206.8125 C 144.394531 197.773438 146.675781 188.835938 145.550781 179.488281 L 145.269531 177.164062 L 147.589844 177.417969 C 153.804688 178.097656 157.792969 180.671875 159.449219 185.066406 C 163.34375 195.402344 152.140625 212.421875 146.101562 219.046875 C 132.621094 233.839844 116.167969 243.144531 98.523438 245.960938 C 94.800781 246.554688 91.0625 246.851562 87.335938 246.851562 Z M 76.886719 131.144531 C 69.390625 136.332031 55.1875 147.085938 43.457031 161.339844 C 32.25 174.949219 26.640625 187.648438 26.785156 199.082031 C 26.9375 211.222656 33.792969 221.820312 47.160156 230.570312 C 63.089844 241 80.652344 245.050781 97.941406 242.292969 C 114.75 239.609375 130.457031 230.707031 143.363281 216.539062 C 149.28125 210.050781 159.054688 194.539062 155.980469 186.378906 C 155.035156 183.867188 152.890625 182.257812 149.457031 181.480469 C 150.046875 190.839844 147.496094 199.808594 141.683594 208.828125 C 136.472656 216.917969 131.726562 217.648438 122.332031 218.421875 C 110.316406 219.410156 94.46875 216.332031 81.957031 210.582031 C 66.433594 203.445312 56.917969 192.890625 55.164062 180.863281 C 53.824219 171.671875 56.269531 155.34375 64.347656 148.59375 C 69.792969 144.042969 79.148438 140.25 86.035156 137.871094 C 93.898438 135.15625 102.898438 132.804688 109.519531 131.730469 C 113.75 131.046875 117.40625 130.824219 120.632812 130.628906 C 128.695312 130.136719 134.519531 129.78125 143.019531 122.757812 C 144.28125 121.714844 148.171875 118.121094 151.863281 114.167969 C 156.296875 109.410156 157.695312 107.066406 158.136719 106.0625 C 154.257812 104.21875 148.492188 103.695312 143.78125 103.261719 C 142.933594 103.1875 142.113281 103.109375 141.328125 103.03125 C 136.292969 102.519531 131.117188 102.371094 126.109375 102.226562 C 119.605469 102.039062 112.878906 101.84375 106.300781 100.863281 C 98.699219 101.476562 89.964844 101.273438 81.515625 101.078125 C 70.617188 100.828125 59.347656 100.566406 50.136719 102.007812 C 48.050781 102.335938 41.597656 106.445312 34.414062 112.753906 C 25.773438 120.34375 23.207031 124.8125 23.320312 125.789062 C 23.375 125.976562 23.441406 126.074219 23.460938 126.09375 C 23.847656 126.246094 25.25 125.664062 25.710938 125.46875 C 26.339844 125.207031 26.796875 125.015625 27.308594 124.996094 C 37.84375 124.554688 48.855469 124.703125 59.503906 124.851562 C 64.742188 124.921875 70.15625 124.996094 75.386719 124.996094 C 76.792969 124.996094 78.179688 126.515625 78.484375 127.878906 C 78.785156 129.230469 78.171875 130.46875 76.886719 131.144531 Z M 27.699219 128.675781 Z M 158.339844 105.417969 Z M 158.339844 105.417969 " fill-opacity="1" fill-rule="nonzero"/></g><path fill="#000000" d="M 96.824219 193.9375 C 95.929688 193.9375 95.144531 193.875 94.496094 193.75 C 90.917969 193.0625 88.582031 190.71875 87.921875 187.15625 C 86.128906 177.480469 96.613281 160.835938 102.140625 157.386719 L 103.191406 156.730469 L 104.199219 157.457031 C 108.179688 160.3125 106.386719 163.917969 105.3125 166.066406 C 104.90625 166.886719 104.484375 167.734375 104.421875 168.332031 C 104.09375 171.425781 108.332031 176.015625 121.21875 179.632812 L 123.070312 180.152344 L 122.480469 181.988281 C 120.097656 189.421875 104.507812 193.9375 96.824219 193.9375 Z M 102.90625 161.460938 C 98.042969 165.828125 90.246094 179.351562 91.566406 186.480469 C 91.957031 188.578125 93.074219 189.695312 95.195312 190.101562 C 97.433594 190.535156 102.863281 189.933594 108.523438 187.96875 C 112.972656 186.425781 116.316406 184.480469 117.960938 182.535156 C 115.21875 181.664062 111.527344 180.304688 108.332031 178.492188 C 102.875 175.398438 100.320312 171.847656 100.734375 167.9375 C 100.867188 166.675781 101.441406 165.523438 101.996094 164.410156 C 102.777344 162.84375 103.078125 162.050781 102.90625 161.460938 Z M 102.90625 161.460938 " fill-opacity="1" fill-rule="nonzero"/></svg>