<svg xmlns="http://www.w3.org/2000/svg" xmlns:xlink="http://www.w3.org/1999/xlink" width="500" zoomAndPan="magnify" viewBox="0 0 375 374.999991" height="500" preserveAspectRatio="xMidYMid meet" version="1.0"><defs><clipPath id="2741f66d30"><path d="M 33 124 L 340 124 L 340 265.351562 L 33 265.351562 Z M 33 124 " clip-rule="nonzero"/></clipPath></defs><rect x="-37.5" width="450" fill="#ffffff" y="-37.499999" height="449.999989" fill-opacity="1"/><rect x="-37.5" width="450" fill="#ffffff" y="-37.499999" height="449.999989" fill-opacity="1"/><g clip-path="url(#2741f66d30)"><path fill="#000000" d="M 157.867188 265.378906 C 138.128906 265.378906 122.394531 264.632812 114.71875 264.183594 C 83.84375 262.371094 62.5625 254.292969 49.65625 239.492188 C 37.035156 225.011719 32.027344 203.828125 34.34375 174.726562 C 34.949219 167.15625 38.976562 129.171875 59.082031 125.089844 C 68.910156 123.089844 74.886719 126.296875 78.167969 129.339844 C 83.429688 134.210938 85.757812 142.429688 84.5625 151.886719 C 83.898438 157.140625 82.90625 161.832031 81.945312 166.371094 C 79.808594 176.441406 77.96875 185.140625 80.03125 197.480469 C 82.722656 213.570312 99.8125 215.972656 118.605469 217.164062 C 163.242188 219.992188 242.671875 218.449219 278.546875 202.609375 C 286.832031 198.949219 291.484375 195.222656 292.003906 191.824219 C 292.773438 186.792969 284.644531 179.679688 277.472656 173.398438 C 267.507812 164.675781 257.203125 155.652344 258.003906 144.5 C 258.667969 135.292969 263.667969 131.898438 267.746094 130.671875 C 277.539062 127.722656 292.203125 134.765625 302.78125 141.191406 C 313.84375 147.917969 325.324219 157.046875 329.484375 162.433594 C 342.695312 179.550781 342.734375 204.976562 329.582031 222.890625 C 302.851562 259.296875 214.128906 265.378906 157.867188 265.378906 Z M 60.75 133.277344 C 49.78125 135.507812 43.9375 159.683594 42.6875 175.390625 C 40.554688 202.132812 44.898438 221.304688 55.96875 234.003906 C 67.316406 247.023438 86.695312 254.167969 115.210938 255.839844 C 129.21875 256.660156 178.664062 258.917969 226.761719 253.476562 C 276.699219 247.824219 309.917969 235.539062 322.835938 217.949219 C 333.832031 202.96875 333.839844 181.769531 322.855469 167.539062 C 319.804688 163.585938 309.597656 155.117188 298.429688 148.332031 C 285.910156 140.722656 275.339844 137.113281 270.15625 138.671875 C 269.136719 138.980469 266.738281 139.699219 266.351562 145.097656 C 265.847656 152.109375 274.953125 160.082031 282.988281 167.117188 C 292.632812 175.554688 301.738281 183.53125 300.273438 193.085938 C 299.261719 199.71875 293.429688 205.171875 281.929688 210.253906 C 264.582031 217.914062 237.367188 222.984375 201.042969 225.324219 C 174.398438 227.039062 143.382812 227.109375 118.074219 225.503906 C 102.257812 224.5 75.785156 222.824219 71.777344 198.855469 C 69.453125 184.960938 71.542969 175.089844 73.757812 164.640625 C 74.683594 160.269531 75.640625 155.75 76.261719 150.839844 C 77.117188 144.089844 75.738281 138.484375 72.480469 135.464844 C 69.792969 132.980469 65.847656 132.242188 60.75 133.277344 Z M 60.75 133.277344 " fill-opacity="1" fill-rule="nonzero"/></g><path fill="#000000" d="M 137.671875 165.117188 C 136.179688 165.117188 134.644531 165.003906 133.070312 164.773438 C 120.332031 162.90625 114.359375 152.40625 114.089844 142.828125 C 113.824219 133.308594 119.078125 122.574219 131.421875 120.054688 C 141.859375 117.925781 150.867188 121.023438 156.125 128.550781 C 161.480469 136.214844 161.789062 147.101562 156.882812 155.03125 C 152.835938 161.570312 145.976562 165.117188 137.671875 165.117188 Z M 137.6875 127.753906 C 136.234375 127.753906 134.699219 127.917969 133.09375 128.246094 C 124.992188 129.898438 122.296875 137.007812 122.453125 142.59375 C 122.613281 148.234375 125.804688 155.261719 134.285156 156.503906 C 141.289062 157.53125 146.789062 155.449219 149.765625 150.636719 C 152.917969 145.542969 152.710938 138.265625 149.265625 133.332031 C 146.703125 129.667969 142.679688 127.753906 137.6875 127.753906 Z M 137.6875 127.753906 " fill-opacity="1" fill-rule="nonzero"/><path fill="#000000" d="M 201.492188 155.011719 C 200.609375 155.011719 199.710938 154.972656 198.792969 154.890625 C 185.441406 153.691406 178.792969 143.363281 178.128906 133.660156 C 177.265625 121.097656 185.246094 113.550781 193.535156 111.644531 C 203.449219 109.359375 212.296875 112.246094 217.804688 119.558594 C 223.339844 126.90625 224.234375 137.375 219.984375 145.011719 C 216.398438 151.453125 209.746094 155.011719 201.492188 155.011719 Z M 199.539062 146.566406 C 205.773438 147.121094 210.3125 145.183594 212.671875 140.953125 C 215.324219 136.183594 214.671875 129.300781 211.121094 124.585938 C 207.636719 119.960938 202.058594 118.257812 195.414062 119.789062 C 188.253906 121.433594 186.125 127.984375 186.476562 133.089844 C 186.867188 138.800781 190.523438 145.757812 199.539062 146.566406 Z M 199.539062 146.566406 " fill-opacity="1" fill-rule="nonzero"/></svg>