<svg xmlns="http://www.w3.org/2000/svg" xmlns:xlink="http://www.w3.org/1999/xlink" width="500" zoomAndPan="magnify" viewBox="0 0 375 374.999991" height="500" preserveAspectRatio="xMidYMid meet" version="1.0"><defs><clipPath id="99d0111899"><path d="M 32 142 L 340 142 L 340 284.457031 L 32 284.457031 Z M 32 142 " clip-rule="nonzero"/></clipPath></defs><rect x="-37.5" width="450" fill="#ffffff" y="-37.499999" height="449.999989" fill-opacity="1"/><rect x="-37.5" width="450" fill="#ffffff" y="-37.499999" height="449.999989" fill-opacity="1"/><g clip-path="url(#99d0111899)"><path fill="#000000" d="M 156.984375 284.460938 C 142.425781 284.460938 131.304688 284.015625 125.945312 283.746094 C 85.691406 281.734375 62.523438 274.042969 48.472656 258.027344 C 35.925781 243.722656 31.015625 222.230469 33.46875 192.332031 C 34.121094 184.382812 38.566406 144.632812 62.113281 142.449219 C 71.621094 141.570312 82.191406 149.242188 83.855469 158.242188 C 85.207031 165.546875 83.257812 172.671875 81.375 179.5625 C 80.25 183.667969 79.191406 187.546875 78.871094 191.257812 C 76.265625 221.636719 79.964844 231.609375 108.164062 234.828125 C 152.648438 239.90625 238.34375 237.460938 276.84375 221.945312 C 286.207031 218.175781 291.671875 214.097656 292.242188 210.464844 C 293.074219 205.164062 284.316406 197.882812 276.589844 191.460938 C 268.464844 184.707031 260.789062 178.324219 258.820312 171.019531 C 257.148438 164.832031 258.179688 158.097656 261.515625 153.445312 C 264.1875 149.714844 268.222656 147.496094 272.878906 147.195312 C 279.59375 146.761719 292.480469 153.53125 302.097656 159.285156 C 311.855469 165.125 323.554688 173.238281 327.699219 178.203125 C 343.785156 197.464844 343.011719 227.269531 325.9375 246.050781 C 310.578125 262.953125 278.382812 274.492188 230.246094 280.351562 C 203.347656 283.625 176.9375 284.460938 156.984375 284.460938 Z M 62.890625 150.796875 C 48.894531 152.09375 43.070312 177.945312 41.832031 193.015625 C 39.574219 220.535156 43.8125 239.992188 54.785156 252.503906 C 67.195312 266.648438 88.601562 273.488281 126.367188 275.375 C 138.902344 276 183.367188 277.613281 229.230469 272.03125 C 274.660156 266.5 305.953125 255.570312 319.726562 240.417969 C 334.042969 224.664062 334.714844 199.695312 321.253906 183.570312 C 314.644531 175.65625 281.753906 155.554688 273.695312 155.554688 C 273.597656 155.554688 273.507812 155.554688 273.417969 155.5625 C 271.230469 155.703125 269.570312 156.605469 268.335938 158.328125 C 266.460938 160.945312 265.902344 165.070312 266.921875 168.835938 C 268.203125 173.578125 275.195312 179.394531 281.957031 185.019531 C 291.863281 193.25 302.101562 201.765625 300.535156 211.765625 C 299.429688 218.8125 292.898438 224.515625 279.984375 229.722656 C 267.011719 234.949219 241.644531 241.761719 194.476562 244.515625 C 163.738281 246.3125 130.300781 245.792969 107.210938 243.15625 C 89.964844 241.1875 79.882812 236.222656 74.515625 227.0625 C 69.347656 218.234375 69.175781 206.078125 70.511719 190.542969 C 70.894531 186.074219 72.105469 181.640625 73.277344 177.355469 C 74.988281 171.097656 76.605469 165.1875 75.601562 159.765625 C 74.707031 154.917969 68.164062 150.308594 62.890625 150.796875 Z M 62.890625 150.796875 " fill-opacity="1" fill-rule="nonzero"/></g><path fill="#000000" d="M 164.371094 138.699219 C 162.421875 138.699219 160.449219 138.421875 158.484375 137.859375 C 150.136719 135.460938 143.277344 128.234375 141.417969 119.875 C 139.730469 112.28125 142.394531 104.753906 148.738281 99.226562 C 159.058594 90.230469 172.128906 93.671875 179.707031 101.722656 C 183.535156 105.785156 185.851562 110.820312 186.226562 115.898438 C 186.667969 121.785156 184.546875 127.273438 180.101562 131.773438 C 175.617188 136.3125 170.09375 138.699219 164.371094 138.699219 Z M 162.53125 102.296875 C 159.746094 102.296875 156.886719 103.246094 154.253906 105.542969 C 149.113281 110.027344 148.890625 114.824219 149.613281 118.058594 C 150.804688 123.421875 155.410156 128.25 160.804688 129.800781 C 164.164062 130.769531 169.203125 130.871094 174.128906 125.882812 C 178.101562 121.867188 180.34375 114.632812 173.59375 107.464844 C 170.78125 104.472656 166.742188 102.296875 162.53125 102.296875 Z M 162.53125 102.296875 " fill-opacity="1" fill-rule="nonzero"/><path fill="#000000" d="M 139.753906 189.652344 C 130.851562 189.652344 125.640625 185.347656 123.097656 182.363281 C 117.773438 176.113281 116.410156 166.972656 119.625 159.078125 C 122.730469 151.453125 129.449219 146.625 138.054688 145.824219 C 151.507812 144.574219 159.363281 154.816406 160.980469 164.863281 C 162.578125 174.789062 158.308594 186.191406 147.0625 188.773438 C 144.390625 189.386719 141.957031 189.652344 139.753906 189.652344 Z M 138.835938 154.167969 C 131.464844 154.855469 128.507812 159.519531 127.398438 162.238281 C 125.382812 167.191406 126.222656 173.097656 129.488281 176.929688 C 132.882812 180.914062 138.308594 182.183594 145.183594 180.605469 C 151.695312 179.109375 153.640625 172.085938 152.695312 166.191406 C 151.136719 156.511719 144.25 153.664062 138.835938 154.167969 Z M 138.835938 154.167969 " fill-opacity="1" fill-rule="nonzero"/><path fill="#000000" d="M 198.339844 185.976562 C 197.835938 185.976562 197.328125 185.960938 196.8125 185.933594 C 185.421875 185.289062 177.457031 177.710938 176.523438 166.621094 C 175.488281 154.386719 183.195312 146.097656 191.339844 144.238281 C 201.03125 142.023438 209.535156 144.585938 214.675781 151.273438 C 219.828125 157.976562 220.636719 167.933594 216.640625 175.480469 C 213.082031 182.207031 206.464844 185.976562 198.339844 185.976562 Z M 198.058594 151.820312 C 196.546875 151.820312 194.929688 152.015625 193.214844 152.40625 C 187.113281 153.800781 184.40625 160.257812 184.882812 165.917969 C 185.101562 168.496094 186.640625 176.960938 197.289062 177.5625 C 204.3125 177.960938 207.65625 174.519531 209.222656 171.5625 C 211.695312 166.890625 211.1875 160.503906 208.015625 156.378906 C 205.699219 153.359375 202.304688 151.820312 198.058594 151.820312 Z M 198.058594 151.820312 " fill-opacity="1" fill-rule="nonzero"/></svg>